# 3ds Max Wavefront OBJ Exporter v0.97b - (c)2007 guruware
# File Created: 10.03.2021 16:17:33

mtllib Display.mtl

#
# object DisplayScreen
#

v  -29.1780 0.0000 -30.9565
v  -29.1780 0.0000 -38.8379
v  -11.4475 0.0000 -38.8379
v  -11.4475 0.0000 -30.9565
v  -11.4475 2.9645 -30.9565
v  -29.1780 2.9645 -30.9565
v  -11.4475 2.9645 -38.8379
v  -29.1780 2.9645 -38.8379
v  -29.4437 24.1617 -38.9031
v  -29.4437 16.5596 -30.2798
v  -11.4194 16.5596 -30.2798
v  -11.4194 24.1617 -38.9031
v  -27.5922 2.9645 -32.5423
v  -27.5922 2.9645 -37.2521
v  -13.0333 2.9645 -32.5423
v  -13.0333 2.9645 -37.2521
v  -21.1961 2.9645 -34.1281
v  -21.1961 2.9645 -35.6663
v  -19.6670 2.9645 -34.1281
v  -19.6670 2.9645 -35.6663
v  -21.1961 17.9645 -34.1281
v  -21.1961 17.9645 -35.6663
v  -19.6670 17.9645 -34.1281
v  -19.6670 17.9645 -35.6663
v  -21.1961 19.0365 -34.4241
v  -21.1961 20.1679 -35.4661
v  -19.6670 19.0365 -34.4241
v  -19.6670 20.1679 -35.4661
v  -29.9484 16.2259 -29.9013
v  -29.9484 24.4955 -39.2817
v  -10.9147 16.2259 -29.9013
v  -10.9147 24.4955 -39.2817
v  -29.9484 16.9760 -29.2400
v  -10.9147 16.9760 -29.2400
v  -11.4194 17.3097 -29.6185
v  -29.4437 17.3097 -29.6185
# 36 vertices

vn -0.5774 -0.5774 0.5774
vn -0.5774 -0.5774 -0.5774
vn 0.5774 -0.5774 -0.5774
vn 0.5774 -0.5774 0.5774
vn 0.5774 0.5774 0.5774
vn -0.5774 0.5774 0.5774
vn 0.5774 0.5774 -0.5774
vn -0.5774 0.5774 -0.5774
vn 0.0000 0.7501 0.6613
vn -0.2275 0.9664 0.1199
vn 0.2275 0.9664 0.1199
vn -0.0000 0.7501 0.6613
vn 0.0000 1.0000 -0.0000
vn -0.3015 0.9045 0.3015
vn -0.3015 0.9045 -0.3015
vn 0.3015 0.9045 0.3015
vn 0.3015 0.9045 -0.3015
vn -0.6781 0.0987 0.7284
vn -0.6971 0.0325 -0.7163
vn 0.6781 0.0987 0.7283
vn 0.6971 0.0325 -0.7163
vn -0.6541 -0.6943 -0.3000
vn -0.1453 -0.5051 -0.8507
vn 0.6542 -0.6943 -0.3000
vn 0.1453 -0.5051 -0.8507
vn -0.7858 -0.6148 -0.0669
vn -0.7456 0.4594 -0.4828
vn 0.7858 -0.6148 -0.0669
vn 0.7456 0.4594 -0.4828
vn -0.7736 0.1985 0.6018
vn 0.7736 0.1985 0.6018
vn 0.2971 0.9471 -0.1213
vn -0.2971 0.9471 -0.1213
# 33 vertex normals

vt 0.5797 0.7089 0.0000
vt 0.5797 0.9500 0.0000
vt 0.0373 0.9500 0.0000
vt 0.0373 0.7089 0.0000
vt 0.7490 0.5075 0.0000
vt 0.7490 0.9934 0.0000
vt 0.6678 0.9934 0.0000
vt 0.6678 0.5075 0.0000
vt 0.9933 0.0389 0.0000
vt 0.9933 0.2549 0.0000
vt 0.9120 0.2549 0.0000
vt 0.9120 0.0389 0.0000
vt 0.6696 0.9933 0.0000
vt 0.6696 0.5074 0.0000
vt 0.7508 0.5074 0.0000
vt 0.7508 0.9933 0.0000
vt 0.9890 0.0398 0.0000
vt 0.9890 0.2558 0.0000
vt 0.9077 0.2558 0.0000
vt 0.9077 0.0398 0.0000
vt 0.0354 0.9558 0.0000
vt 0.0354 0.6920 0.0000
vt 0.5868 0.6920 0.0000
vt 0.5868 0.9558 0.0000
vt 0.0347 0.6602 0.0000
vt 0.0347 0.4191 0.0000
vt 0.0832 0.4676 0.0000
vt 0.0832 0.6117 0.0000
vt 0.5771 0.4191 0.0000
vt 0.5286 0.4676 0.0000
vt 0.5771 0.6602 0.0000
vt 0.5286 0.6117 0.0000
vt 0.2788 0.5161 0.0000
vt 0.2788 0.5631 0.0000
vt 0.3256 0.5161 0.0000
vt 0.3256 0.5631 0.0000
vt 0.9762 0.5026 0.0000
vt 0.9324 0.5026 0.0000
vt 0.9324 0.9302 0.0000
vt 0.9762 0.9302 0.0000
vt 0.7855 0.5041 0.0000
vt 0.8291 0.5041 0.0000
vt 0.8291 0.9317 0.0000
vt 0.7855 0.9317 0.0000
vt 0.9341 0.5057 0.0000
vt 0.9779 0.5057 0.0000
vt 0.9779 0.9333 0.0000
vt 0.9341 0.9333 0.0000
vt 0.8533 0.4914 0.0000
vt 0.8969 0.4914 0.0000
vt 0.8969 0.9189 0.0000
vt 0.8533 0.9189 0.0000
vt 0.9408 0.9608 0.0000
vt 0.9705 0.9930 0.0000
vt 0.8291 0.9622 0.0000
vt 0.7855 0.9622 0.0000
vt 0.9722 0.9961 0.0000
vt 0.9425 0.9638 0.0000
vt 0.8969 0.9817 0.0000
vt 0.8533 0.9817 0.0000
vt 0.3679 0.2671 0.0000
vt 0.3676 0.2352 0.0000
vt 0.6338 0.0940 0.0000
vt 0.6369 0.3809 0.0000
vt 0.3208 0.2357 0.0000
vt 0.0516 0.1002 0.0000
vt 0.3211 0.2676 0.0000
vt 0.0546 0.3872 0.0000
vt 0.3228 0.2722 0.0000
vt 0.3696 0.2717 0.0000
vt 0.6387 0.4012 0.0000
vt 0.0565 0.4075 0.0000
vt 0.0199 0.9674 0.0000
vt 0.0005 0.7420 0.0000
vt 0.0204 0.0304 0.0000
vt 0.5421 0.0304 0.0000
vt 0.5283 0.0407 0.0000
vt 0.0342 0.0407 0.0000
vt 0.6022 0.6804 0.0000
vt 0.6022 0.9674 0.0000
vt 0.0154 0.0055 0.0000
vt 0.5371 0.0055 0.0000
vt 0.5371 0.0260 0.0000
vt 0.0154 0.0260 0.0000
vt 0.4464 0.1219 0.0000
vt 0.4252 0.1272 0.0000
vt 0.4178 0.0975 0.0000
vt 0.4390 0.0922 0.0000
vt 0.0353 0.0453 0.0000
vt 0.5294 0.0453 0.0000
vt 0.5294 0.0658 0.0000
vt 0.0353 0.0658 0.0000
vt 0.4214 0.0953 0.0000
vt 0.4432 0.0946 0.0000
vt 0.4443 0.1252 0.0000
vt 0.4224 0.1259 0.0000
# 96 texture coords

o DisplayScreen
g DisplayScreen
usemtl wire_088088225
s 2
f 1/1/1 2/2/2 3/3/3 4/4/4 
s 8
f 1/5/1 4/6/4 5/7/5 6/8/6 
s 16
f 4/9/4 3/10/3 7/11/7 5/12/5 
s 32
f 3/13/3 2/14/2 8/15/8 7/16/7 
s 64
f 2/17/2 1/18/1 6/19/6 8/20/8 
s 1
f 9/21/9 10/22/10 11/23/11 12/24/12 
s off
f 8/25/8 6/26/6 13/27/13 14/28/13 
f 6/26/6 5/29/5 15/30/13 13/27/13 
f 5/29/5 7/31/7 16/32/13 15/30/13 
f 7/31/7 8/25/8 14/28/13 16/32/13 
f 14/28/13 13/27/13 17/33/14 18/34/15 
f 13/27/13 15/30/13 19/35/16 17/33/14 
f 15/30/13 16/32/13 20/36/17 19/35/16 
f 16/32/13 14/28/13 18/34/15 20/36/17 
f 18/37/15 17/38/14 21/39/18 22/40/19 
f 17/41/14 19/42/16 23/43/20 21/44/18 
f 19/45/16 20/46/17 24/47/21 23/48/20 
f 20/49/17 18/50/15 22/51/19 24/52/21 
f 22/40/19 21/39/18 25/53/22 26/54/23 
f 21/44/18 23/43/20 27/55/24 25/56/22 
f 23/48/20 24/47/21 28/57/25 27/58/24 
f 24/52/21 22/51/19 26/59/23 28/60/25 
f 26/61/23 25/62/22 29/63/26 30/64/27 
f 25/62/22 27/65/24 31/66/28 29/63/26 
f 27/65/24 28/67/25 32/68/29 31/66/28 
f 28/69/25 26/70/23 30/71/27 32/72/29 
f 30/73/27 29/74/26 10/22/10 9/21/9 
f 33/75/30 34/76/31 35/77/32 36/78/33 
f 31/79/28 32/80/29 12/24/12 11/23/11 
f 32/80/29 30/73/27 9/21/9 12/24/12 
f 29/81/26 31/82/28 34/83/31 33/84/30 
f 31/85/28 11/86/11 35/87/32 34/88/31 
f 11/89/11 10/90/10 36/91/33 35/92/32 
f 10/93/10 29/94/26 33/95/30 36/96/33 
# 34 polygons

